<svg width="20" height="29" viewBox="0 0 20 29" fill="none" xmlns="http://www.w3.org/2000/svg">
<path fill-rule="evenodd" clip-rule="evenodd" d="M20 10.6665C20 15.903 13.5 23.3332 10 23.3332C6.5 23.3332 0 15.3845 0 10.148C0 4.6665 4.84534 0.666504 10 0.666504C15.1547 0.666504 20 4.6665 20 10.6665ZM13.3333 9.99984C13.3333 11.8408 11.8409 13.3332 10 13.3332C8.15905 13.3332 6.66667 11.8408 6.66667 9.99984C6.66667 8.15889 8.15905 6.6665 10 6.6665C11.8409 6.6665 13.3333 8.15889 13.3333 9.99984ZM1.99935 26.3327C1.44706 26.3327 0.999348 26.7804 0.999348 27.3327C0.999348 27.885 1.44706 28.3327 1.99935 28.3327H17.9993C18.5516 28.3327 18.9993 27.885 18.9993 27.3327C18.9993 26.7804 18.5516 26.3327 17.9993 26.3327H1.99935Z" fill="#3075FC"/>
</svg>
